#N canvas 979 101 749 697 10;
#X obj 220 315 inlet~;
#X obj 220 345 +~;
#X obj 230 460 outlet~;
#X obj 300 90 cnv 15 257 128 empty empty Comb\ Filter\ Controller 5
8 0 14 #2d2d2d #ff8000 0;
#X obj 310 130 hsl 128 20 0 2000 0 0 empty empty Delay -2 -10 0 10
#ff8000 #000000 #ff8000 10150 1;
#X obj 310 180 hsl 128 20 0 1 0 0 empty empty Filter\ Gain -2 -9 0
10 #ff8000 #000000 #ff8000 2200 1;
#X obj 310 255 / 44.1;
#X floatatom 455 250 5 0 0 1 Delay(milliseconds) - -, f 5;
#X floatatom 455 230 5 0 0 1 Delay(samples) - -, f 5;
#X obj 270 310 delread~ \$0-combfilter;
#X obj 270 345 *~;
#X floatatom 455 315 5 0 0 1 Filter_Coefficient - -, f 5;
#X obj 220 285 block~ 1;
#X obj 450 130 nbx 5 20 -1e+37 1e+37 0 0 empty empty empty 0 -8 0 10
#fcfcfc #000000 #000000 1598.43 256 0;
#X obj 450 180 nbx 5 20 -1e+37 1e+37 0 0 empty empty empty 0 -8 0 10
#fcfcfc #000000 #000000 0.173228 256 0;
#X obj 250 415 delwrite~ \$0-combfilter 1000;
#X obj 410 310 pow;
#X msg 455 290 0.995;
#X text 495 290 Pole radius;
#X obj 220 430 *~;
#X connect 0 0 1 0;
#X connect 1 0 15 0;
#X connect 1 0 19 0;
#X connect 4 0 13 0;
#X connect 4 0 6 0;
#X connect 4 0 16 1;
#X connect 4 0 8 0;
#X connect 4 0 17 0;
#X connect 5 0 14 0;
#X connect 5 0 19 1;
#X connect 5 0 16 0;
#X connect 6 0 7 0;
#X connect 6 0 9 0;
#X connect 9 0 10 0;
#X connect 10 0 1 1;
#X connect 16 0 10 1;
#X connect 16 0 11 0;
#X connect 17 0 16 0;
#X connect 19 0 2 0;
#X coords 0 -1 1 1 259 130 1 299 89;
