#N canvas 523 307 725 532 10;
#X obj 105 195 *~;
#X obj 265 70 hsl 64 15 1 128 0 0 empty empty empty -2 -8 0 10 #fcfcfc
#000000 #000000 0 1;
#X floatatom 250 205 5 0 0 0 - - -, f 5;
#X floatatom 110 145 5 0 0 0 - - -, f 5;
#X obj 90 55 inlet~;
#X floatatom 155 115 5 0 0 0 - - -, f 5;
#X msg 280 140 0.995;
#X obj 250 175 pow;
#X obj 105 115 / 44.1;
#X text 325 140 Pole radius;
#X text 155 140 Delay in samples;
#X text 15 145 Delay in ms;
#X text 290 205 Filter coefficient;
#X text 280 50 Delay;
#X obj 105 295 hsl 128 15 0 1 0 0 empty empty empty -2 -8 0 10 #fcfcfc
#000000 #000000 200 1;
#X text 105 275 Filter gain;
#X obj 90 320 *~;
#X obj 90 350 outlet~;
#X obj 95 245 delwrite~ \$0-mycomb 1000;
#X obj 105 170 delread~ \$0-mycomb;
#X obj 90 25 block~ 1;
#X obj 90 220 +~;
#X connect 0 0 21 1;
#X connect 1 0 5 0;
#X connect 1 0 7 1;
#X connect 1 0 8 0;
#X connect 1 0 6 0;
#X connect 4 0 21 0;
#X connect 6 0 7 0;
#X connect 7 0 0 1;
#X connect 7 0 2 0;
#X connect 8 0 3 0;
#X connect 8 0 19 0;
#X connect 14 0 16 1;
#X connect 16 0 17 0;
#X connect 19 0 0 0;
#X connect 21 0 16 0;
#X connect 21 0 18 0;
