#N canvas -8 -8 1920 992 10;
#X obj 200 565 * 10000;
#X obj 200 595 % 120000;
#X obj 200 625 / 10000;
#X floatatom 200 655 5 0 0 1 Pitch-Class(0_equals_C) - -, f 5;
#X floatatom 200 535 5 0 0 1 MIDI_Pitch - -, f 5;
#X obj 200 505 unpack;
#X obj 145 470 fiddle~ 1024 1 20 1;
#X obj 170 90 hsl 164 15 0 0.5 0 0 empty empty Volume -2 -8 0 10 #00ff80
#000000 #000000 0 1;
#N canvas 0 0 450 300 (subpatch) 0;
#X array Mic_Frequency 100 float 5 black black;
#A 0 0 0 0 0 0 0 0 0 0 0 0 0 0 0 0 0 0 0 0 0 0 0 0 0 0 0 0 0 0 0 0
0 0 0 0 0 0 0 0 0 0 0 0 0 0 0 0 0 0 0 0 0 0 0 0 0 0 0 0 0 0 0 0 0 0
0 0 0 0 0 0 0 0 0 0 0 0 0 0 0 0 0 0 0 0 0 0 0 0 0 0 0 0 0 0 0 0 0 0
0;
#X coords 0 1 99 -1 200 140 1;
#X restore 345 50 graph;
#X obj 200 145 metro 100;
#X obj 200 125 tgl 15 0 empty empty empty 17 7 0 10 #fcfcfc #000000
#000000 1 1;
#X obj 155 170 tabwrite~ Mic_Frequency;
#X obj 155 145 *~ 5;
#X obj 145 50 adc~;
#X obj 145 120 *~;
#X obj 145 245 Comb_Filter;
#X obj 305 570 env~;
#X floatatom 355 575 5 0 0 0 - - -, f 5;
#X connect 0 0 1 0;
#X connect 1 0 2 0;
#X connect 2 0 3 0;
#X connect 4 0 0 0;
#X connect 4 0 16 0;
#X connect 5 0 4 0;
#X connect 6 2 5 0;
#X connect 7 0 14 1;
#X connect 9 0 11 0;
#X connect 10 0 9 0;
#X connect 12 0 11 0;
#X connect 13 0 14 0;
#X connect 13 1 14 0;
#X connect 14 0 12 0;
#X connect 14 0 15 0;
#X connect 15 0 6 0;
#X connect 16 0 17 0;
