#N canvas 727 338 819 611 10;
#X obj 110 415 * 10000;
#X obj 110 445 % 120000;
#X obj 110 475 / 10000;
#X floatatom 110 505 5 0 0 1 Pitch-Class(0_equals_C) - -, f 5;
#X floatatom 110 385 5 0 0 1 MIDI_Pitch - -, f 5;
#X obj 110 355 unpack;
#X obj 55 320 fiddle~ 1024 1 20 1;
#X obj 55 105 osc~;
#X obj 55 45 hsl 180 15 0 5000 0 0 empty empty Frequency(Hz) -2 -8
0 10 #00ff80 #000000 #000000 0 1;
#X obj 65 75 nbx 5 14 -1e+37 1e+37 0 0 empty empty Hz 58 5 0 10 #fcfcfc
#000000 #000000 0 256 0;
#X obj 70 140 hsl 164 15 0 0.5 0 0 empty empty Volume -2 -8 0 10 #00ff80
#000000 #000000 0 1;
#X obj 55 215 *~;
#N canvas 0 0 450 300 (subpatch) 0;
#X array Osc_Frequency 100 float 5 black black;
#A 0 0 0 0 0 0 0 0 0 0 0 0 0 0 0 0 0 0 0 0 0 0 0 0 0 0 0 0 0 0 0 0
0 0 0 0 0 0 0 0 0 0 0 0 0 0 0 0 0 0 0 0 0 0 0 0 0 0 0 0 0 0 0 0 0 0
0 0 0 0 0 0 0 0 0 0 0 0 0 0 0 0 0 0 0 0 0 0 0 0 0 0 0 0 0 0 0 0 0 0
0;
#X coords 0 0.5 99 -0.5 200 140 1;
#X restore 340 55 graph;
#X obj 110 240 metro 100;
#X obj 110 220 tgl 15 0 empty empty empty 17 7 0 10 #fcfcfc #000000
#000000 0 1;
#X obj 65 265 tabwrite~ Osc_Frequency;
#X obj 65 240 *~ 25;
#X text 75 160 !!! EAR RAPE WARNING KEEP VOLUME LOW !!!;
#X text 75 175 !!! AS IN \, EXTREMELY LOW !!!;
#X connect 0 0 1 0;
#X connect 1 0 2 0;
#X connect 2 0 3 0;
#X connect 4 0 0 0;
#X connect 5 0 4 0;
#X connect 6 2 5 0;
#X connect 7 0 11 0;
#X connect 8 0 7 0;
#X connect 8 0 9 0;
#X connect 9 0 7 0;
#X connect 10 0 11 1;
#X connect 11 0 6 0;
#X connect 11 0 16 0;
#X connect 13 0 15 0;
#X connect 14 0 13 0;
#X connect 16 0 15 0;
