#N canvas 883 281 551 573 10;
#X obj 100 100 inlet~;
#X obj 100 150 +~;
#X obj 100 180 outlet~;
#X obj 155 180 delwrite~ \$0-combfilter 500;
#X obj 155 125 *~ 0.25;
#X obj 155 100 delread~ \$0-combfilter 500;
#X connect 0 0 1 0;
#X connect 1 0 2 0;
#X connect 1 0 3 0;
#X connect 4 0 1 1;
#X connect 5 0 4 0;
